<?xml version="1.0" encoding="utf-8"?>
<!-- Generator: Adobe Illustrator 15.0.2, SVG Export Plug-In . SVG Version: 6.00 Build 0)  -->
<!DOCTYPE svg PUBLIC "-//W3C//DTD SVG 1.1//EN" "http://www.w3.org/Graphics/SVG/1.1/DTD/svg11.dtd">
<svg version="1.1" xmlns="http://www.w3.org/2000/svg" xmlns:xlink="http://www.w3.org/1999/xlink" x="0px" y="0px" width="266px"
	 height="157.333px" viewBox="0 0 266 157.333" enable-background="new 0 0 266 157.333" xml:space="preserve">
<g id="Layer_2">
	<polygon fill="#803F98" points="80.334,22.833 80.334,77 168.334,77 168.334,122 214.001,122 214.001,22.833 	"/>
</g>
<g id="Layer_3">
	<polygon fill="#BCBDBF" points="166.084,122 166.084,78.833 78.334,78.833 78.334,41.583 23.084,41.583 23.084,122 	"/>
</g>
<g id="Layer_4">
	<polygon fill="#E7E8E7" points="23.084,140.833 23.084,125.333 219.334,125.333 219.334,22.833 247.334,22.833 247.334,140.833 	
		"/>
</g>
<g id="Layer_5">
	<rect fill="none" stroke="#231F20" stroke-width="0.25" width="266" height="157.333"/>
	<g>
		<path fill="#231F20" d="M105.124,139.042h-1.47l-1.049-4.038l-1.09,4.038h-1.43l-1.758-6.656h1.639l0.979,4.397l1.079-4.397h1.319
			l1.06,4.418l1.01-4.418h1.479L105.124,139.042z"/>
		<path fill="#231F20" d="M106.667,139.042v-1.379h1.21v1.379H106.667z"/>
		<path fill="#231F20" d="M111.316,139.042v-5.986c0.49,0,0.689-0.32,0.689-0.67h0.79v6.656H111.316z"/>
		<path fill="#231F20" d="M116.535,139.232c-1.519,0-2.469-0.959-2.469-2.309v-2.408c0-1.359,0.95-2.309,2.469-2.309
			c1.5,0,2.459,0.949,2.459,2.309v2.408C118.994,138.273,118.035,139.232,116.535,139.232z M117.545,134.445
			c0-0.56-0.34-0.989-1.01-0.989s-1.02,0.43-1.02,0.989v2.539c0,0.56,0.35,0.989,1.02,0.989s1.01-0.43,1.01-0.989V134.445z"/>
		<path fill="#231F20" d="M122.266,139.232c-1.42,0-2.318-0.729-2.318-1.809v-0.34h1.369v0.15c0,0.52,0.359,0.81,0.959,0.81
			c0.699,0,0.97-0.431,0.97-1.04v-1.089c-0.33,0.38-0.76,0.659-1.46,0.659c-1.199,0-1.868-0.689-1.868-1.739v-0.569
			c0-1.189,0.899-2.059,2.358-2.059c1.489,0,2.419,0.879,2.419,2.288v2.379C124.694,138.263,123.785,139.232,122.266,139.232z
			 M123.245,134.325c0-0.52-0.351-0.949-0.989-0.949c-0.6,0-0.93,0.34-0.93,0.859v0.52c0,0.57,0.31,0.9,0.909,0.9
			c0.54,0,0.84-0.271,1.01-0.66V134.325z"/>
		<path fill="#231F20" d="M127.426,135.294v2.259c0,0.59,0.109,1.069,0.41,1.489h-1.449c-0.24-0.38-0.311-0.81-0.311-1.489v-2.259
			h-0.72v-0.999h0.76v-0.88l1.31-0.319v1.199h0.889v0.999H127.426z"/>
		<path fill="#231F20" d="M131.686,139.042v-3.278c0-0.399-0.221-0.64-0.57-0.64c-0.459,0-0.779,0.54-0.779,0.939v2.979h-1.35
			v-6.656h1.35v2.668c0.29-0.579,0.82-0.899,1.43-0.899c0.819,0,1.27,0.58,1.27,1.449v3.438H131.686z"/>
		<path fill="#231F20" d="M138.495,139.232c-1.669,0-2.589-0.81-2.589-2.059v-0.33h1.459v0.2c0,0.66,0.46,0.949,1.109,0.949
			c0.65,0,0.92-0.31,0.92-0.759c0-1.18-3.379-0.85-3.379-2.988c0-1.12,0.9-2.039,2.439-2.039c1.549,0,2.479,0.85,2.479,2.009v0.33
			h-1.459v-0.2c0-0.52-0.35-0.899-1.02-0.899c-0.57,0-0.9,0.29-0.9,0.729c0,1.129,3.398,0.81,3.398,2.938
			C140.953,138.283,140.104,139.232,138.495,139.232z"/>
		<path fill="#231F20" d="M143.535,135.294v2.259c0,0.59,0.11,1.069,0.41,1.489h-1.449c-0.24-0.38-0.311-0.81-0.311-1.489v-2.259
			h-0.719v-0.999h0.76v-0.88l1.309-0.319v1.199h0.89v0.999H143.535z"/>
		<path fill="#231F20" d="M147.944,135.495c-1.079-0.21-1.489,0.17-1.489,0.669v2.879h-1.359v-4.797h1.15l0.069,1.019
			c0.26-0.909,0.819-1.219,1.659-1.039L147.944,135.495z"/>
		<path fill="#231F20" d="M150.585,139.123c-1.21,0-2.028-0.76-2.028-1.859v-1.229c0-1.089,0.799-1.879,2.018-1.879
			c1.23,0,1.97,0.78,1.97,1.869v0.76h-2.679v0.67c0,0.42,0.27,0.72,0.8,0.72c0.489,0,0.729-0.28,0.729-0.63v-0.18h1.149v0.069
			C152.544,138.502,151.734,139.123,150.585,139.123z M151.305,135.785c0-0.38-0.279-0.67-0.72-0.67s-0.72,0.279-0.72,0.67v0.489
			h1.439V135.785z"/>
		<path fill="#231F20" d="M155.325,139.123c-1.21,0-2.028-0.76-2.028-1.859v-1.229c0-1.089,0.799-1.879,2.018-1.879
			c1.23,0,1.97,0.78,1.97,1.869v0.76h-2.679v0.67c0,0.42,0.27,0.72,0.8,0.72c0.489,0,0.729-0.28,0.729-0.63v-0.18h1.149v0.069
			C157.284,138.502,156.475,139.123,155.325,139.123z M156.045,135.785c0-0.38-0.279-0.67-0.72-0.67s-0.72,0.279-0.72,0.67v0.489
			h1.439V135.785z"/>
		<path fill="#231F20" d="M159.885,135.294v2.259c0,0.59,0.11,1.069,0.41,1.489h-1.449c-0.24-0.38-0.311-0.81-0.311-1.489v-2.259
			h-0.719v-0.999h0.76v-0.88l1.309-0.319v1.199h0.89v0.999H159.885z"/>
	</g>
	<g>
		<path fill="#231F20" d="M245.502,110.993h-4.508l1.18,0.351l3.328,1.099v1.12l-3.328,1.079l-1.169,0.33h4.497v1.449h-6.656v-2.169
			l3.438-1.089l0.869-0.25l-0.869-0.25l-3.438-1.07v-2.128h6.656V110.993z"/>
		<path fill="#231F20" d="M245.582,104.583c0,0.59-0.21,0.93-0.76,1.039c0.5,0.35,0.76,0.89,0.76,1.539c0,0.82-0.49,1.42-1.329,1.42
			h-0.05c-1.05,0-1.449-1.119-1.479-2.648h-0.53c-0.39,0-0.609,0.17-0.609,0.59c0,0.389,0.18,0.629,0.56,0.629h0.15v1.189h-0.141
			c-0.909,0-1.539-0.68-1.539-1.85c0-1.279,0.74-1.879,1.739-1.879h2.059c0.2,0,0.29-0.119,0.29-0.369h0.88V104.583z
			 M243.363,105.932c-0.021,0.909,0.21,1.369,0.699,1.369h0.12c0.3,0,0.52-0.23,0.52-0.58c0-0.42-0.26-0.789-0.64-0.789H243.363z"/>
		<path fill="#231F20" d="M245.502,100.812h-3.278c-0.399,0-0.64,0.22-0.64,0.569c0,0.46,0.55,0.789,0.949,0.789h2.969v1.359h-4.797
			v-1.169l1.019-0.06c-0.759-0.33-1.109-0.869-1.109-1.52c0-0.879,0.58-1.319,1.449-1.319h3.438V100.812z"/>
		<path fill="#231F20" d="M245.502,95.733h-3.278c-0.399,0-0.64,0.219-0.64,0.568c0,0.461,0.54,0.78,0.939,0.78h2.979v1.349h-6.656
			v-1.349h2.668c-0.579-0.29-0.899-0.819-0.899-1.429c0-0.82,0.58-1.27,1.449-1.27h3.438V95.733z"/>
		<path fill="#231F20" d="M245.582,89.603c0,0.59-0.21,0.93-0.76,1.04c0.5,0.35,0.76,0.889,0.76,1.539
			c0,0.818-0.49,1.418-1.329,1.418h-0.05c-1.05,0-1.449-1.119-1.479-2.648h-0.53c-0.39,0-0.609,0.17-0.609,0.59
			c0,0.391,0.18,0.63,0.56,0.63h0.15v1.189h-0.141c-0.909,0-1.539-0.68-1.539-1.849c0-1.279,0.74-1.879,1.739-1.879h2.059
			c0.2,0,0.29-0.12,0.29-0.37h0.88V89.603z M243.363,90.952c-0.021,0.91,0.21,1.369,0.699,1.369h0.12c0.3,0,0.52-0.229,0.52-0.579
			c0-0.419-0.26-0.79-0.64-0.79H243.363z"/>
		<path fill="#231F20" d="M241.754,86.833h2.259c0.59,0,1.069-0.111,1.489-0.41v1.449c-0.38,0.24-0.81,0.31-1.489,0.31h-2.259v0.72
			h-0.999v-0.76h-0.88l-0.319-1.309h1.199v-0.891h0.999V86.833z"/>
		<path fill="#231F20" d="M241.754,83.552h2.259c0.59,0,1.069-0.11,1.489-0.41v1.449c-0.38,0.24-0.81,0.31-1.489,0.31h-2.259v0.721
			h-0.999v-0.76h-0.88l-0.319-1.31h1.199v-0.89h0.999V83.552z"/>
		<path fill="#231F20" d="M245.582,78.233c0,0.59-0.21,0.93-0.76,1.04c0.5,0.35,0.76,0.89,0.76,1.539
			c0,0.819-0.49,1.419-1.329,1.419h-0.05c-1.05,0-1.449-1.119-1.479-2.648h-0.53c-0.39,0-0.609,0.17-0.609,0.59
			c0,0.39,0.18,0.629,0.56,0.629h0.15v1.189h-0.141c-0.909,0-1.539-0.68-1.539-1.849c0-1.279,0.74-1.879,1.739-1.879h2.059
			c0.2,0,0.29-0.12,0.29-0.37h0.88V78.233z M243.363,79.583c-0.021,0.91,0.21,1.369,0.699,1.369h0.12c0.3,0,0.52-0.229,0.52-0.58
			c0-0.419-0.26-0.789-0.64-0.789H243.363z"/>
		<path fill="#231F20" d="M245.502,74.463h-3.278c-0.399,0-0.64,0.219-0.64,0.568c0,0.461,0.55,0.79,0.949,0.79h2.969v1.359h-4.797
			v-1.169l1.019-0.061c-0.759-0.33-1.109-0.869-1.109-1.52c0-0.879,0.58-1.318,1.449-1.318h3.438V74.463z"/>
		<path fill="#231F20" d="M245.502,66.354l-1.339,0.379v1.859l1.339,0.39v1.489l-6.656-1.999v-1.749l6.656-2.009V66.354z
			 M240.654,67.643l2.409,0.649v-1.279L240.654,67.643z"/>
		<path fill="#231F20" d="M245.502,61.833v1.159l-4.797,1.599v-1.359l2.358-0.629l0.93-0.24l-0.93-0.229l-2.358-0.62v-1.289
			L245.502,61.833z"/>
		<path fill="#231F20" d="M245.582,57.733c0,1.209-0.76,2.028-1.859,2.028h-1.229c-1.089,0-1.879-0.8-1.879-2.019
			c0-1.229,0.78-1.969,1.869-1.969h0.76v2.678h0.67c0.42,0,0.72-0.27,0.72-0.799c0-0.49-0.28-0.73-0.63-0.73h-0.18v-1.148h0.069
			C244.962,55.774,245.582,56.583,245.582,57.733z M242.244,57.012c-0.38,0-0.67,0.28-0.67,0.721c0,0.439,0.279,0.719,0.67,0.719
			h0.489v-1.439H242.244z"/>
		<path fill="#231F20" d="M245.502,52.173h-3.278c-0.399,0-0.64,0.22-0.64,0.569c0,0.46,0.55,0.789,0.949,0.789h2.969v1.359h-4.797
			v-1.169l1.019-0.06c-0.759-0.33-1.109-0.869-1.109-1.52c0-0.879,0.58-1.319,1.449-1.319h3.438V52.173z"/>
		<path fill="#231F20" d="M245.502,46.874l-0.949,0.06c0.699,0.33,1.029,0.859,1.029,1.519c0,0.91-0.58,1.35-1.439,1.35h-3.438
			v-1.359h3.268c0.4,0,0.64-0.229,0.64-0.6c0-0.439-0.52-0.76-0.919-0.76h-2.988v-1.349h4.797V46.874z"/>
		<path fill="#231F20" d="M245.582,42.783c0,1.21-0.76,2.028-1.859,2.028h-1.229c-1.089,0-1.879-0.799-1.879-2.018
			c0-1.23,0.78-1.97,1.869-1.97h0.76v2.679h0.67c0.42,0,0.72-0.27,0.72-0.8c0-0.489-0.28-0.729-0.63-0.729h-0.18v-1.149h0.069
			C244.962,40.824,245.582,41.633,245.582,42.783z M242.244,42.063c-0.38,0-0.67,0.279-0.67,0.72s0.279,0.72,0.67,0.72h0.489v-1.439
			H242.244z"/>
	</g>
</g>
</svg>
