<?xml version="1.0" encoding="utf-8"?>
<!-- Generator: Adobe Illustrator 15.0.2, SVG Export Plug-In . SVG Version: 6.00 Build 0)  -->
<!DOCTYPE svg PUBLIC "-//W3C//DTD SVG 1.1//EN" "http://www.w3.org/Graphics/SVG/1.1/DTD/svg11.dtd">
<svg version="1.1" id="Layer_1" xmlns="http://www.w3.org/2000/svg" xmlns:xlink="http://www.w3.org/1999/xlink" x="0px" y="0px"
	 width="216px" height="216px" viewBox="0 0 216 216" enable-background="new 0 0 216 216" xml:space="preserve">
<g id="XMLID_1_">
	<g>
		<path d="M207.774,19.809v177c0,6.63-5.37,12-12,12h-175c-6.63,0-12-5.37-12-12v-177c0-6.63,5.37-12,12-12h175
			C202.404,7.809,207.774,13.179,207.774,19.809z"/>
	</g>
	<g>
		<path fill="none" stroke="#030202" d="M207.774,196.809c0,6.63-5.37,12-12,12h-175c-6.63,0-12-5.37-12-12v-177
			c0-6.63,5.37-12,12-12h175c6.63,0,12,5.37,12,12V196.809z"/>
	</g>
</g>
<path fill="#FFFFFF" d="M62.506,131.98c0,6.502-4.299,11.771-9.6,11.771h-2.719c-5.301,0-9.6-5.27-9.6-11.771V85.1
	c0-6.501,4.299-11.771,9.6-11.771h2.719c5.301,0,9.6,5.271,9.6,11.771V131.98z"/>
<path fill="#FFFFFF" d="M36.999,121.973c0,4.161-3.373,7.534-7.534,7.534l0,0c-4.161,0-7.534-3.373-7.534-7.534V91.961
	c0-4.161,3.373-7.534,7.534-7.534l0,0c4.161,0,7.534,3.373,7.534,7.534V121.973z"/>
<path fill="#FFFFFF" d="M153.891,132.111c0,6.43,4.299,11.641,9.6,11.641h2.719c5.301,0,9.6-5.211,9.6-11.641V85.749
	c0-6.429-4.299-11.641-9.6-11.641h-2.719c-5.301,0-9.6,5.211-9.6,11.641V132.111z"/>
<path fill="#FFFFFF" d="M179.397,121.631c0,4.161,3.373,7.534,7.534,7.534l0,0c4.161,0,7.534-3.373,7.534-7.534V91.619
	c0-4.161-3.373-7.534-7.534-7.534l0,0c-4.161,0-7.534,3.373-7.534,7.534V121.631z"/>
<path fill="#FFFFFF" d="M148,107.122c0,2.586-1.252,4.683-2.797,4.683H71.346c-1.545,0-2.797-2.097-2.797-4.683l0,0
	c0-2.586,1.252-4.682,2.797-4.682h73.857C146.748,102.44,148,104.536,148,107.122L148,107.122z"/>
</svg>
